<svg xmlns="http://www.w3.org/2000/svg" xmlns:xlink="http://www.w3.org/1999/xlink" width="16px" height="16px" viewBox="0 0 16 24" version="1.1">
<g id="surface1">
<path style="fill:none;stroke-width:34.5396;stroke-linecap:butt;stroke-linejoin:miter;stroke:rgb(255,20,147);stroke-opacity:1;stroke-miterlimit:4;" d="M 248.725586 130.794271 C 248.725586 68.098958 196.902344 17.252604 133 17.252604 C 69.097656 17.252604 17.274414 68.098958 17.274414 130.794271 C 17.274414 193.489583 69.097656 244.270833 133 244.270833 C 196.902344 244.270833 248.725586 193.489583 248.725586 130.794271 Z M 248.725586 130.794271 " transform="matrix(0.0601504,0,0,0.06,0,0)"/>
<path style=" stroke:none;fill-rule:nonzero;fill:rgb(255,20,147);fill-opacity:1;" d="M 6.585938 15.421875 L 6.585938 18.210938 L 3.386719 18.210938 L 3.386719 20.742188 L 6.585938 20.742188 L 6.585938 24 L 9.414062 24 L 9.414062 20.742188 L 12.492188 20.742188 L 12.492188 18.210938 L 9.414062 18.210938 L 9.414062 15.421875 Z M 6.585938 15.421875 "/>
</g>
</svg>
