<svg xmlns="http://www.w3.org/2000/svg" xmlns:xlink="http://www.w3.org/1999/xlink" width="16px" height="16px" viewBox="0 0 24 24" version="1.1">
<g id="surface1">
<path style=" stroke:none;fill-rule:nonzero;fill:rgb(0,0,255);fill-opacity:1;" d="M 18.785156 0 L 17.792969 1.738281 L 20.273438 1.738281 L 15.679688 6.332031 C 11.558594 3.253906 5.761719 3.882812 2.394531 7.769531 C -0.972656 11.660156 -0.765625 17.488281 2.875 21.125 C 6.511719 24.765625 12.339844 24.972656 16.230469 21.605469 C 20.117188 18.238281 20.746094 12.441406 17.667969 8.320312 L 22.261719 3.726562 L 22.261719 6.207031 L 24 5.214844 L 24 0 Z M 9.84375 7.078125 C 13.753906 7.078125 16.921875 10.246094 16.921875 14.15625 C 16.921875 18.0625 13.753906 21.234375 9.84375 21.234375 C 5.9375 21.234375 2.765625 18.0625 2.765625 14.15625 C 2.765625 10.246094 5.9375 7.078125 9.84375 7.078125 Z M 9.84375 7.078125 "/>
</g>
</svg>
