<svg xmlns="http://www.w3.org/2000/svg" xmlns:xlink="http://www.w3.org/1999/xlink" width="16pt" height="16pt" viewBox="0 0 16 16" version="1.1">
<g id="surface1">
<path style=" stroke:none;fill-rule:nonzero;fill:rgb(0%,0%,0%);fill-opacity:1;" d="M 8 6.316406 C 9.742188 6.316406 11.15625 4.898438 11.15625 3.15625 C 11.15625 1.417969 9.742188 0 8 0 C 6.257812 0 4.84375 1.417969 4.84375 3.15625 C 4.84375 4.898438 6.257812 6.316406 8 6.316406 Z M 8 6.316406 "/>
<path style=" stroke:none;fill-rule:nonzero;fill:rgb(0%,0%,0%);fill-opacity:1;" d="M 12.238281 7.84375 C 12.234375 7.84375 12.234375 7.84375 12.230469 7.84375 C 11.820312 7.742188 10.5625 7.566406 10.5625 7.566406 C 10.417969 7.523438 10.269531 7.597656 10.21875 7.738281 L 8.320312 12.9375 C 8.210938 13.238281 7.789062 13.238281 7.679688 12.9375 L 5.785156 7.738281 C 5.742188 7.625 5.636719 7.554688 5.523438 7.554688 C 5.496094 7.554688 4.199219 7.734375 3.769531 7.84375 C 2.589844 8.136719 1.847656 9.292969 1.847656 10.5 L 1.847656 14.824219 C 1.847656 15.472656 2.375 16 3.023438 16 L 12.976562 16 C 13.625 16 14.152344 15.472656 14.152344 14.824219 L 14.152344 10.484375 C 14.152344 9.285156 13.378906 8.21875 12.238281 7.84375 Z M 12.238281 7.84375 "/>
<path style=" stroke:none;fill-rule:nonzero;fill:rgb(0%,0%,0%);fill-opacity:1;" d="M 8.714844 7.46875 C 8.640625 7.386719 8.527344 7.34375 8.417969 7.34375 L 7.582031 7.34375 C 7.472656 7.34375 7.359375 7.386719 7.285156 7.46875 C 7.167969 7.59375 7.152344 7.777344 7.234375 7.921875 L 7.679688 8.59375 L 7.472656 10.355469 L 7.882812 11.449219 C 7.921875 11.558594 8.078125 11.558594 8.117188 11.449219 L 8.527344 10.355469 L 8.320312 8.59375 L 8.765625 7.921875 C 8.847656 7.777344 8.832031 7.59375 8.714844 7.46875 Z M 8.714844 7.46875 "/>
</g>
</svg>
