<svg xmlns="http://www.w3.org/2000/svg" xmlns:xlink="http://www.w3.org/1999/xlink" width="16pt" height="16pt" viewBox="0 0 16 16" version="1.1">
<g id="surface1">
<path style=" stroke:none;fill-rule:nonzero;fill:rgb(0%,0%,0%);fill-opacity:1;" d="M 12.890625 11.25 C 12.773438 10.96875 12.488281 10.789062 12.21875 10.675781 L 10.382812 9.832031 L 9.5 9.085938 L 8.082031 10.496094 L 8.695312 14.585938 C 8.695312 14.597656 8.691406 14.613281 8.683594 14.625 L 8.042969 15.5 C 8.035156 15.515625 8.019531 15.523438 8 15.523438 C 7.984375 15.523438 7.96875 15.515625 7.957031 15.5 L 7.316406 14.625 C 7.308594 14.613281 7.304688 14.597656 7.308594 14.585938 L 7.917969 10.496094 L 6.5 9.085938 L 5.621094 9.832031 L 3.785156 10.675781 C 3.511719 10.789062 3.246094 10.957031 3.109375 11.25 C 3.109375 11.25 1.113281 16.003906 2.195312 16.003906 L 13.804688 16.003906 C 14.886719 16.003906 12.890625 11.25 12.890625 11.25 Z M 12.890625 11.25 "/>
<path style=" stroke:none;fill-rule:nonzero;fill:rgb(0%,0%,0%);fill-opacity:1;" d="M 13.019531 4.738281 C 13.046875 4.734375 13.070312 4.722656 13.089844 4.699219 C 13.105469 4.679688 13.113281 4.652344 13.113281 4.625 C 13.089844 4.449219 13.070312 4.273438 13.050781 4.097656 L 13.007812 3.730469 C 13 3.675781 12.953125 3.636719 12.894531 3.640625 L 12.816406 3.640625 L 12.820312 2.410156 L 12.859375 2.394531 L 13 2.34375 C 13.117188 2.300781 13.195312 2.191406 13.195312 2.066406 C 13.195312 1.941406 13.117188 1.828125 13 1.789062 L 8.101562 0.0195312 C 8.035156 -0.0078125 7.964844 -0.0078125 7.898438 0.0195312 L 3.003906 1.789062 C 2.886719 1.828125 2.808594 1.941406 2.808594 2.066406 C 2.808594 2.191406 2.886719 2.300781 3.003906 2.34375 L 4.8125 3 C 4.6875 3.402344 4.628906 3.863281 4.632812 4.378906 C 4.664062 7.3125 6.367188 9.0625 7.941406 9.0625 C 9.5 9.0625 11.222656 7.3125 11.253906 4.378906 C 11.257812 3.878906 11.203125 3.429688 11.085938 3.035156 L 12.402344 2.558594 L 12.402344 3.640625 L 12.324219 3.640625 C 12.269531 3.636719 12.21875 3.675781 12.214844 3.730469 L 12.109375 4.625 C 12.105469 4.652344 12.113281 4.679688 12.132812 4.703125 C 12.148438 4.722656 12.175781 4.738281 12.203125 4.738281 M 7.941406 8.347656 C 6.570312 8.347656 5.621094 6.738281 5.429688 5.128906 C 5.25 3.640625 7.40625 3.570312 7.53125 4.492188 C 7.570312 4.777344 7.242188 5.082031 7.28125 5.199219 C 7.460938 5.777344 10.480469 3.308594 10.457031 5.128906 C 10.445312 6.410156 9.253906 8.347656 7.941406 8.347656 Z M 7.941406 8.347656 "/>
</g>
</svg>
