<svg xmlns="http://www.w3.org/2000/svg" xmlns:xlink="http://www.w3.org/1999/xlink" width="16pt" height="16pt" viewBox="0 0 16 16" version="1.1">
<g id="surface1">
<path style=" stroke:none;fill-rule:nonzero;fill:rgb(0%,0%,0%);fill-opacity:1;" d="M 15.488281 0.183594 L 6.984375 0.183594 C 6.699219 0.183594 6.472656 0.414062 6.472656 0.695312 L 6.472656 4.308594 L 6.839844 3.875 C 7.015625 3.671875 7.25 3.542969 7.496094 3.492188 L 7.496094 1.207031 L 14.976562 1.207031 L 14.976562 7.894531 L 7.496094 7.894531 L 7.496094 6.777344 L 7.265625 7.046875 C 7.0625 7.28125 6.777344 7.425781 6.472656 7.457031 L 6.472656 8.40625 C 6.472656 8.691406 6.699219 8.917969 6.984375 8.917969 L 9.746094 8.917969 L 8.339844 15.292969 C 8.277344 15.578125 8.460938 15.859375 8.746094 15.921875 C 9.027344 15.984375 9.3125 15.804688 9.375 15.519531 L 10.828125 8.917969 L 11.675781 8.917969 L 13.128906 15.519531 C 13.183594 15.765625 13.402344 15.933594 13.644531 15.933594 C 13.683594 15.933594 13.722656 15.929688 13.757812 15.921875 C 14.046875 15.859375 14.226562 15.578125 14.160156 15.292969 L 12.757812 8.917969 L 15.488281 8.917969 C 15.769531 8.917969 16 8.691406 16 8.40625 L 16 0.695312 C 16 0.414062 15.769531 0.183594 15.488281 0.183594 Z M 15.488281 0.183594 "/>
<path style=" stroke:none;fill-rule:nonzero;fill:rgb(0%,0%,0%);fill-opacity:1;" d="M 11.421875 3.175781 C 11.382812 3.074219 11.269531 3.023438 11.167969 3.0625 L 8.152344 4.128906 C 7.875 3.914062 7.472656 3.953125 7.242188 4.21875 L 6.285156 5.339844 L 5.4375 4.609375 C 5.445312 4.671875 5.457031 4.730469 5.457031 4.789062 L 5.457031 6.371094 L 5.929688 6.773438 C 6.207031 7.015625 6.628906 6.976562 6.863281 6.703125 L 8 5.371094 L 8.921875 4.832031 L 11.335938 3.417969 C 11.421875 3.371094 11.457031 3.265625 11.421875 3.175781 Z M 11.421875 3.175781 "/>
<path style=" stroke:none;fill-rule:nonzero;fill:rgb(0%,0%,0%);fill-opacity:1;" d="M 3.59375 3.457031 L 3.027344 3.457031 C 2.589844 3.457031 2.207031 3.667969 1.964844 3.992188 L 0.21875 5.597656 C -0.0507812 5.839844 -0.0742188 6.257812 0.167969 6.53125 L 1.59375 8.121094 C 1.835938 8.394531 2.253906 8.417969 2.527344 8.171875 C 2.800781 7.929688 2.820312 7.511719 2.578125 7.238281 L 1.597656 6.144531 L 2.988281 4.894531 L 2.179688 6 L 2.972656 6.886719 C 3.410156 7.375 3.371094 8.128906 2.878906 8.566406 C 2.546875 8.867188 2.089844 8.9375 1.691406 8.800781 C 1.691406 8.800781 1.699219 11.859375 1.699219 15.140625 C 1.699219 15.578125 2.054688 15.933594 2.492188 15.933594 C 2.929688 15.933594 3.289062 15.578125 3.289062 15.140625 C 3.289062 11.863281 3.289062 13.734375 3.289062 10.40625 L 3.816406 10.40625 C 3.816406 13.730469 3.816406 11.859375 3.816406 15.140625 C 3.816406 15.371094 3.753906 15.582031 3.652344 15.769531 C 3.785156 15.871094 3.949219 15.933594 4.132812 15.933594 C 4.570312 15.933594 4.925781 15.578125 4.925781 15.140625 C 4.925781 11.863281 4.925781 13.238281 4.925781 4.789062 C 4.925781 4.054688 4.332031 3.457031 3.59375 3.457031 Z M 3.59375 3.457031 "/>
<path style=" stroke:none;fill-rule:nonzero;fill:rgb(0%,0%,0%);fill-opacity:1;" d="M 2.601562 2.980469 C 2.816406 3.09375 3.054688 3.160156 3.308594 3.160156 C 3.566406 3.160156 3.804688 3.09375 4.015625 2.980469 C 4.515625 2.722656 4.855469 2.210938 4.855469 1.613281 C 4.855469 0.757812 4.164062 0.0664062 3.308594 0.0664062 C 2.453125 0.0664062 1.761719 0.757812 1.761719 1.613281 C 1.761719 2.210938 2.105469 2.722656 2.601562 2.980469 Z M 2.601562 2.980469 "/>
</g>
</svg>