<svg xmlns="http://www.w3.org/2000/svg" xmlns:xlink="http://www.w3.org/1999/xlink" width="16pt" height="16pt" viewBox="0 0 16 16" version="1.1">
<g id="surface1">
<path style=" stroke:none;fill-rule:nonzero;fill:rgb(0%,0%,0%);fill-opacity:1;" d="M 7.757812 15.058594 L 6.980469 13.714844 C 6.710938 13.246094 6.871094 12.644531 7.339844 12.375 L 7.511719 12.277344 C 7.5 12.167969 7.496094 12.0625 7.496094 11.953125 C 7.496094 11.847656 7.5 11.738281 7.511719 11.628906 L 7.339844 11.53125 C 7.113281 11.402344 6.949219 11.1875 6.882812 10.9375 C 6.816406 10.6875 6.851562 10.417969 6.980469 10.195312 L 7.757812 8.847656 C 7.886719 8.625 8.101562 8.460938 8.351562 8.390625 C 8.433594 8.371094 8.519531 8.359375 8.605469 8.359375 C 8.777344 8.359375 8.945312 8.402344 9.097656 8.488281 L 9.269531 8.589844 C 9.445312 8.46875 9.632812 8.363281 9.824219 8.273438 L 9.824219 8.066406 C 9.824219 8.050781 9.835938 8.035156 9.835938 8.019531 C 9.316406 7.628906 8.667969 7.320312 7.828125 7.160156 L 7.828125 6.675781 C 8.984375 6.125 9.789062 4.953125 9.789062 3.589844 C 9.789062 1.695312 8.253906 0.160156 6.359375 0.160156 C 4.464844 0.160156 2.929688 1.695312 2.929688 3.589844 C 2.929688 4.957031 3.734375 6.125 4.890625 6.675781 L 4.890625 7.160156 C 0.984375 7.910156 0.96875 11.691406 0.96875 13.878906 C 0.96875 15.585938 8.4375 15.539062 8.355469 15.515625 C 8.101562 15.449219 7.886719 15.285156 7.757812 15.058594 Z M 7.757812 15.058594 "/>
<path style=" stroke:none;fill-rule:nonzero;fill:rgb(0%,0%,0%);fill-opacity:1;" d="M 14.386719 11.953125 C 14.386719 11.664062 14.335938 11.394531 14.261719 11.128906 L 15.03125 10.683594 L 14.253906 9.339844 L 13.492188 9.777344 C 13.105469 9.382812 12.609375 9.097656 12.054688 8.957031 L 12.054688 8.070312 L 10.5 8.070312 L 10.5 8.957031 C 9.945312 9.097656 9.453125 9.378906 9.0625 9.777344 L 8.300781 9.339844 L 7.523438 10.683594 L 8.292969 11.128906 C 8.222656 11.394531 8.167969 11.664062 8.167969 11.953125 C 8.167969 12.242188 8.222656 12.511719 8.292969 12.777344 L 7.523438 13.222656 L 8.300781 14.570312 L 9.0625 14.132812 C 9.453125 14.527344 9.945312 14.808594 10.503906 14.953125 L 10.503906 15.839844 L 12.054688 15.839844 L 12.054688 14.953125 C 12.609375 14.8125 13.105469 14.527344 13.496094 14.132812 L 14.257812 14.570312 L 15.03125 13.222656 L 14.265625 12.78125 C 14.335938 12.515625 14.386719 12.242188 14.386719 11.953125 Z M 11.277344 13.832031 C 10.242188 13.832031 9.402344 12.992188 9.402344 11.957031 C 9.402344 10.921875 10.242188 10.078125 11.277344 10.078125 C 12.316406 10.078125 13.152344 10.921875 13.152344 11.957031 C 13.152344 12.992188 12.316406 13.832031 11.277344 13.832031 Z M 11.277344 13.832031 "/>
</g>
</svg>
